<svg width="20" height="21" viewBox="0 0 20 21" fill="none" xmlns="http://www.w3.org/2000/svg">
<path fill-rule="evenodd" clip-rule="evenodd" d="M4.16667 9.80934C4.16667 7.12359 6.40917 4.93943 9.16667 4.93943C11.9242 4.93943 14.1667 7.12359 14.1667 9.80934C14.1667 12.4951 11.9242 14.6792 9.16667 14.6792C6.40917 14.6792 4.16667 12.4951 4.16667 9.80934ZM17.2558 16.5404L14.4267 13.784C15.3042 12.685 15.8333 11.3076 15.8333 9.80934C15.8333 6.22915 12.8425 3.31613 9.16667 3.31613C5.49083 3.31613 2.5 6.22915 2.5 9.80934C2.5 13.3895 5.49083 16.3025 9.16667 16.3025C10.705 16.3025 12.1192 15.7871 13.2475 14.9325L16.0775 17.688C16.24 17.8463 16.4533 17.9258 16.6667 17.9258C16.88 17.9258 17.0933 17.8463 17.2558 17.688C17.5817 17.3707 17.5817 16.8577 17.2558 16.5404Z" fill="#8D8D8D"/>
<mask id="mask0_701_70" style="mask-type:luminance" maskUnits="userSpaceOnUse" x="2" y="3" width="16" height="15">
<path fill-rule="evenodd" clip-rule="evenodd" d="M4.16667 9.80934C4.16667 7.12359 6.40917 4.93943 9.16667 4.93943C11.9242 4.93943 14.1667 7.12359 14.1667 9.80934C14.1667 12.4951 11.9242 14.6792 9.16667 14.6792C6.40917 14.6792 4.16667 12.4951 4.16667 9.80934ZM17.2558 16.5404L14.4267 13.784C15.3042 12.685 15.8333 11.3076 15.8333 9.80934C15.8333 6.22915 12.8425 3.31613 9.16667 3.31613C5.49083 3.31613 2.5 6.22915 2.5 9.80934C2.5 13.3895 5.49083 16.3025 9.16667 16.3025C10.705 16.3025 12.1192 15.7871 13.2475 14.9325L16.0775 17.688C16.24 17.8463 16.4533 17.9258 16.6667 17.9258C16.88 17.9258 17.0933 17.8463 17.2558 17.688C17.5817 17.3707 17.5817 16.8577 17.2558 16.5404Z" fill="white"/>
</mask>
<g mask="url(#mask0_701_70)">
<rect y="0.88118" width="20" height="19.4796" fill="#8D8D8D"/>
</g>
</svg>
